<?xml version="1.0" standalone="no"?>
        <!DOCTYPE svg PUBLIC "-//W3C//DTD SVG 1.1//EN" 
        "http://www.w3.org/Graphics/SVG/1.1/DTD/svg11.dtd"><svg id="changeColor" fill="#DC7633" xmlns="http://www.w3.org/2000/svg" xmlns:xlink="http://www.w3.org/1999/xlink" width="200" zoomAndPan="magnify" viewBox="0 0 375 374.9999" height="200" preserveAspectRatio="xMidYMid meet" version="1.0" transform="rotate(0)"><path id="pathAttribute" d="M 181.5 22.617188 C 153.1875 21.785156 118.628906 25.109375 89.484375 46.726562 C 60.753906 68.34375 37.019531 107.421875 25.777344 148.164062 C 14.953125 188.902344 16.203125 230.476562 32.855469 262.070312 C 49.511719 293.664062 81.570312 315.285156 122.375 330.25 C 163.597656 345.632812 213.976562 354.777344 255.613281 338.980469 C 297.667969 322.765625 331.390625 282.027344 346.796875 237.542969 C 362.203125 193.0625 359.703125 145.667969 341.386719 111.164062 C 323.066406 76.660156 288.921875 55.875 260.609375 42.570312 C 232.296875 29.265625 209.8125 23.445312 181.5 22.617188 Z M 181.5 22.617188 " fill-opacity="1" fill-rule="evenodd" stroke-width="10" stroke="#727272" fill="orange"></path><g id="inner-icon" transform="translate(85, 75)"> <svg xmlns="http://www.w3.org/2000/svg" aria-label="Django Project" role="img" viewBox="0 0 512 512" id="IconChangeColor" height="218" width="218" transform="rotate(0)"><rect width="512" height="512" rx="15%" fill="#113228"></rect><path fill="#ffffff" d="M227 101h56v257c-29 5-50 8-73 8-69 0-104-31-104-90 0-57 37-93 96-93 9 0 16 0 25 2zm0 129c-7-2-12-3-19-3-29 0-45 18-45 48s15 46 44 46c6 0 11 0 20-2zm145-44v129c0 45-3 66-13 84-9 18-21 29-46 42l-52-25c25-11 37-22 44-37 8-16 11-34 11-83V186zm-56-85h56v57h-56z" id="mainIconPathAttribute" stroke-width="2" stroke="#ff3300"></path></svg> </g></svg>